<svg xmlns="http://www.w3.org/2000/svg" viewBox="0 0 23.98 23.98"><g id="Layer_2" data-name="Layer 2"><g id="Layer_1-2" data-name="Layer 1"><path d="M23.39,8.28A12,12,0,1,1,12,0a12,12,0,0,1,11.4,8.28M12,1.08A10.91,10.91,0,1,0,22.36,8.62,10.91,10.91,0,0,0,12,1.08" fill="#6c9f5f"/><path d="M13.62,8.54h1.11V6.85l-.54,0c-.33,0-.67,0-1,0a2.45,2.45,0,0,0-1.41.44,2.08,2.08,0,0,0-.85,1.41,3.54,3.54,0,0,0-.06.73c0,.38,0,.75,0,1.13v.15H9.25v1.89h1.61v4.75h2V12.52h1.61l.24-1.89H12.81s0-.94,0-1.35.34-.72.79-.74" fill="#6c9f5f" fill-rule="evenodd"/></g></g></svg>