<svg xmlns="http://www.w3.org/2000/svg" viewBox="0 0 23.98 23.98"><g id="Layer_2" data-name="Layer 2"><g id="Layer_1-2" data-name="Layer 1"><path d="M23.39,8.28A12,12,0,1,1,12,0a12,12,0,0,1,11.4,8.28M12,1.08A10.91,10.91,0,1,0,22.36,8.62,10.91,10.91,0,0,0,12,1.08" fill="#6c9f5f"/><path d="M8.23,10.16h2V16.5h-2ZM9.22,7A1.14,1.14,0,1,1,8.08,8.15,1.14,1.14,0,0,1,9.22,7" fill="#6c9f5f"/><path d="M11.44,10.16h1.89V11h0a2.08,2.08,0,0,1,1.87-1c2,0,2.36,1.31,2.36,3V16.5h-2V13.42c0-.74,0-1.68-1-1.68s-1.19.8-1.19,1.62V16.5h-2Z" fill="#6c9f5f"/></g></g></svg>