<svg xmlns="http://www.w3.org/2000/svg" viewBox="0 0 23.98 23.98"><g id="Layer_2" data-name="Layer 2"><g id="Layer_1-2" data-name="Layer 1"><path d="M23.39,8.28A12,12,0,1,1,12,0a12,12,0,0,1,11.4,8.28M12,1.08A10.91,10.91,0,1,0,22.36,8.62,10.92,10.92,0,0,0,12,1.08" fill="#6c9f5f"/><path d="M16.54,9.4A2.62,2.62,0,0,1,14,7.29a2.72,2.72,0,0,1-.05-.49h-1.7V14a1.52,1.52,0,0,1-1.05,1.45,1.54,1.54,0,0,1-.57.08A1.55,1.55,0,0,1,9.15,14a1.53,1.53,0,0,1,1.53-1.56,1.57,1.57,0,0,1,.49.08V10.79a4,4,0,0,0-.49,0,3.25,3.25,0,0,0-2.45,1.1,3.18,3.18,0,0,0,.15,4.39l.31.27a3.27,3.27,0,0,0,2,.67,2.7,2.7,0,0,0,.49,0,3.25,3.25,0,0,0,1.81-.9A3.18,3.18,0,0,0,13.93,14V10.19a4.32,4.32,0,0,0,.95.56,4.38,4.38,0,0,0,1.68.33V9.4Z" fill="#6c9f5f"/></g></g></svg>