<svg xmlns="http://www.w3.org/2000/svg" viewBox="0 0 23.98 23.98"><g id="Layer_2" data-name="Layer 2"><g id="Layer_1-2" data-name="Layer 1"><path d="M23.39,8.28A12,12,0,1,1,12,0a12,12,0,0,1,11.4,8.28M12,1.08A10.91,10.91,0,1,0,22.36,8.62,10.91,10.91,0,0,0,12,1.08" fill="#6c9f5f"/><path d="M8,15.34a1.17,1.17,0,0,1-.78-.75c-.34-.93-.44-4.82.21-5.59a1.28,1.28,0,0,1,.85-.45,47.93,47.93,0,0,1,7.8.06,1.23,1.23,0,0,1,.77.74,12.21,12.21,0,0,1-.05,5.38,1.24,1.24,0,0,1-.55.56c-.65.34-7.39.34-8.25.05m2.79-1.82,3.16-1.64-3.16-1.64Z" fill="#6c9f5f" fill-rule="evenodd"/></g></g></svg>